<svg width="167" height="51" viewBox="0 0 167 51" fill="none" xmlns="http://www.w3.org/2000/svg">
<g clip-path="url(#clip0_1435_974)">
<path d="M142.749 0H143.294C143.944 0.412425 144.19 1.18728 144.547 1.82908C149.47 11.0557 154.4 20.2782 159.329 29.5024C161.712 33.9961 164.142 38.4657 166.5 42.9716V43.0595C166.36 43.3134 166.248 43.7124 165.886 43.6769C163.491 43.6844 161.093 43.6892 158.7 43.6746C158.126 43.6977 157.971 43.0706 157.754 42.6666C157.318 41.8393 156.849 41.0328 156.456 40.1837C155.784 39.043 155.254 37.8277 154.582 36.6882C154.066 35.5609 153.399 34.5151 152.879 33.39C152.559 32.7091 152.136 32.0819 151.818 31.4001C151.346 30.3873 150.735 29.449 150.276 28.429C149.585 27.2309 149.013 25.9704 148.321 24.7721C147.836 23.6983 147.189 22.7089 146.699 21.6376C146.356 20.9007 145.898 20.2234 145.557 19.4843C145.113 18.5251 144.523 17.6428 144.1 16.6742C143.889 16.2995 143.743 15.7785 143.3 15.6285C143.014 15.6053 142.614 15.5334 142.453 15.8397C141.707 17.0391 141.16 18.348 140.441 19.5632C139.926 20.6896 139.254 21.735 138.737 22.8601C138.429 23.514 138.025 24.1168 137.716 24.7683C137.48 25.2578 137.241 25.7456 136.963 26.2131C136.471 27.0427 136.12 27.9468 135.623 28.7728C135.188 29.4976 134.88 30.2895 134.447 31.0143C133.992 31.7621 133.675 32.582 133.227 33.3325C132.715 34.1865 132.354 35.1199 131.84 35.9729C131.407 36.6977 131.1 37.4883 130.665 38.2131C130.211 38.961 129.893 39.7808 129.446 40.5314C128.964 41.3352 128.61 42.2065 128.156 43.0241C128.001 43.2669 127.853 43.5718 127.548 43.6425C127.08 43.7254 126.6 43.6766 126.127 43.6828C124.296 43.6815 122.465 43.6756 120.634 43.689C120.303 43.6828 119.905 43.6877 119.678 43.4023C119.607 43.0911 119.633 42.7543 119.802 42.4799C127.271 28.4791 134.755 14.4875 142.23 0.489244C142.345 0.274783 142.551 0.133142 142.75 8.33182e-05L142.749 0ZM0.000333273 6.72403C0.512573 6.18379 1.28952 6.36051 1.95181 6.34226C8.62018 6.34584 15.2869 6.34226 21.9557 6.34359C23.9169 6.27752 25.9025 6.57397 27.7434 7.26109C30.8415 8.37256 33.5076 10.8688 34.5104 14.0437C34.9543 15.2479 35.0506 16.5439 35.1398 17.8128C35.0582 19.1719 34.8935 20.5532 34.3799 21.8258C33.7638 23.3154 32.8747 24.7504 31.549 25.7082C31.2294 26.0168 30.734 26.1476 30.501 26.5356C32.265 27.1725 33.7823 28.3789 34.9263 29.8516C36.8071 32.3114 37.3304 35.5668 37.0109 38.5867C36.8426 40.5779 36.2705 42.5544 35.2312 44.269C34.5375 45.3352 33.6812 46.3125 32.642 47.0543C30.3732 48.7382 27.5654 49.5141 24.7928 49.8337C24.2246 49.9108 23.6414 49.8692 23.0838 50.0254H0.508741C0.320942 49.8741 0.146473 49.7058 0 49.5128V6.72394M7.4843 12.9796C7.27084 13.2407 7.32933 13.597 7.31733 13.9095C7.3365 17.1514 7.28809 20.3943 7.3415 23.6352C7.54029 23.8831 7.84524 24.0528 8.16843 24.0355C12.4791 24.039 16.791 24.0305 21.1011 24.0404C21.7012 24.0661 22.2917 23.9404 22.8833 23.8575C24.2249 23.6622 25.5654 23.1314 26.5012 22.1189C27.1414 21.4819 27.433 20.5983 27.6487 19.7443C27.7011 19.0527 27.9221 18.3582 27.7294 17.6675C27.6367 16.4988 27.1621 15.363 26.3705 14.4953C25.2617 13.49 23.7773 13.0092 22.3138 12.8322C21.8454 12.7859 21.3696 12.8556 20.9049 12.7628C20.3268 12.6382 19.7351 12.698 19.1497 12.6909C15.6112 12.687 12.0728 12.6944 8.53578 12.6859C8.16735 12.6859 7.79891 12.7873 7.48422 12.9799M7.72443 30.5425C7.58054 30.5878 7.44281 30.6731 7.3989 30.828C7.13895 31.3308 7.19261 31.9092 7.19519 32.4556C7.2001 35.7916 7.19161 39.1275 7.19877 42.4629C7.20594 42.9401 7.4718 43.6161 8.04662 43.5575C12.6011 43.5597 17.1566 43.5549 21.7108 43.5588C22.1684 43.5744 22.6256 43.5588 23.077 43.4758C24.6796 43.3391 26.3385 43.0182 27.6889 42.0946C28.7743 41.3258 29.3709 40.0546 29.6027 38.7745C29.9099 37.297 29.7953 35.7509 29.3661 34.3088C28.9816 33.1961 28.2229 32.1823 27.1594 31.643C25.7544 30.8693 24.142 30.6377 22.5671 30.5032C17.7676 30.5044 12.9681 30.5044 8.16809 30.5032C8.01914 30.4997 7.87025 30.5128 7.72418 30.5422L7.72443 30.5425ZM44.4464 6.37775C44.9538 6.29477 45.4722 6.35334 45.9845 6.34359C53.0591 6.34226 60.1345 6.34718 67.2107 6.34101C70.4087 6.50465 73.6581 7.62328 75.9682 9.90511C77.7248 11.6415 78.7835 14.0242 79.037 16.4681C79.0321 17.4357 79.0773 18.4059 79.0104 19.3721C78.7067 21.4463 77.8917 23.5351 76.3305 24.9869C75.8892 25.4494 75.4098 25.8791 74.8487 26.1912C74.7329 26.2888 74.4874 26.3376 74.5596 26.5355C76.3549 27.2675 77.976 28.4912 79.092 30.0859C79.5714 30.7437 79.9164 31.4854 80.2484 32.2262C80.9081 33.7159 81.0314 35.3643 81.1278 36.9702C81.0462 38.2121 80.9716 39.4651 80.6754 40.6804C80.2435 42.7985 79.1422 44.7617 77.604 46.2722C76.9759 46.791 76.3416 47.3107 75.6366 47.7231C73.6484 48.9406 71.3347 49.5033 69.0438 49.8057C68.4049 49.9144 67.7462 49.8558 67.1154 50.0254H44.5553C44.2041 49.8204 43.864 49.4972 43.9089 49.0516C43.9116 35.1408 43.9116 21.2291 43.9089 7.31833C43.8943 6.93399 44.1237 6.57264 44.4469 6.37775M52.0044 12.7321C51.7702 12.7871 51.5154 12.8724 51.3896 13.0956C51.1713 13.4045 51.2334 13.7997 51.225 14.1547C51.2361 17.1245 51.2286 20.0944 51.2273 23.063C51.2068 23.4501 51.4642 23.7843 51.7591 24.005C52.6362 24.0821 53.5205 24.0138 54.4012 24.0356C58.1433 24.0333 61.8841 24.0405 65.6266 24.0333C66.8819 23.8917 68.1808 23.728 69.2822 23.0595C70.4168 22.5496 71.1338 21.4452 71.5191 20.3018C71.8094 19.3771 71.7095 18.3998 71.7144 17.4468C71.6315 16.7709 71.4157 16.1059 71.1081 15.4983C70.2287 13.9888 68.5347 13.1569 66.8537 12.9115C66.1927 12.7455 65.506 12.8822 64.8424 12.7455C64.3349 12.6469 63.8178 12.6957 63.3068 12.6909C59.6866 12.6869 56.0666 12.6944 52.4471 12.6859C52.2971 12.6869 52.1497 12.7015 52.0044 12.7321ZM51.7591 30.5448C51.3958 30.6239 51.2117 31.0072 51.2312 31.3535C51.2286 34.8529 51.2334 38.3509 51.2286 41.8491C51.2334 42.2947 51.1846 42.7595 51.3577 43.1829C51.4446 43.482 51.8105 43.55 52.0813 43.5561C56.7162 43.5624 61.3521 43.5513 65.9887 43.5624C66.6013 43.593 67.2001 43.4354 67.81 43.4074C69.3722 43.2121 70.9764 42.762 72.1813 41.7004C73.1316 40.7426 73.5963 39.4017 73.6989 38.0767C73.8205 37.4203 73.8489 36.7479 73.7136 36.0914C73.5951 34.6054 73.0757 33.0191 71.8435 32.0908C70.3532 30.94 68.421 30.6741 66.6013 30.5032C61.966 30.5045 57.3296 30.5045 52.6947 30.5032C52.3825 30.5107 52.0652 30.4775 51.759 30.5449L51.7591 30.5448ZM81.3955 7.26951C81.1749 6.82292 81.6116 6.28594 82.0862 6.34093C84.3644 6.3396 86.6442 6.35201 88.9237 6.33601C89.1887 6.32268 89.4812 6.36042 89.6228 6.61921C90.1631 7.44881 90.5999 8.34306 91.0341 9.23265C91.3084 9.80121 91.6596 10.3285 91.9343 10.8971C92.4404 11.9939 93.0956 13.0125 93.5968 14.112C94.2675 15.2526 94.7981 16.468 95.4692 17.6078C96.0446 18.84 96.7681 19.9944 97.3363 21.2302C97.8304 22.0942 98.2792 22.9812 98.7269 23.8706C99.2952 24.7917 99.693 25.8023 100.254 26.7282C100.646 27.4091 100.936 28.1424 101.341 28.8157C101.854 29.6688 102.214 30.6035 102.728 31.4549C103.236 32.3093 103.582 33.2512 104.129 34.082C104.374 34.5432 105.177 34.5445 105.423 34.082C105.969 33.2499 106.315 32.3093 106.824 31.4549C107.277 30.7083 107.597 29.8894 108.043 29.1379C108.556 28.2838 108.916 27.3505 109.43 26.4965C109.938 25.6093 110.333 24.6613 110.868 23.789C111.493 22.4797 112.246 21.239 112.863 19.9261C113.368 19.0682 113.793 18.1689 114.254 17.2883C114.794 16.4183 115.167 15.4604 115.695 14.5856C116.151 13.8022 116.485 12.9566 116.947 12.1769C117.416 11.4033 117.743 10.5554 118.212 9.7818C118.839 8.72633 119.244 7.53804 119.986 6.55097C120.154 6.29094 120.485 6.34951 120.75 6.33485C122.989 6.35568 125.228 6.33876 127.466 6.34101C127.77 6.30685 128.026 6.50965 128.17 6.76218C128.313 7.18294 128.007 7.56604 127.814 7.91272C120.697 21.2145 113.601 34.527 106.486 47.8305C106.079 48.5904 105.735 49.4164 105.104 50.0254H104.568C103.759 49.519 103.487 48.5318 103.024 47.7488C95.8123 34.2579 88.6154 20.7554 81.3959 7.26951H81.3955Z" fill="white"/>
</g>
<defs>
<clipPath id="clip0_1435_974">
<rect width="166.5" height="50.0254" fill="white"/>
</clipPath>
</defs>
</svg>
